<svg width="32" height="33" viewBox="0 0 32 33" fill="none" xmlns="http://www.w3.org/2000/svg">
<path d="M12.1797 28.4517V24.3446C12.1797 23.2962 13.0296 22.4462 14.0779 22.4462H17.9101C18.4136 22.4462 18.8964 22.6462 19.2524 23.0023C19.6084 23.3583 19.8084 23.8411 19.8084 24.3446V28.4517C19.8052 28.8875 19.9761 29.3067 20.2832 29.616C20.5902 29.9253 21.0081 30.0993 21.4439 30.0993H24.0584C25.2795 30.1025 26.4517 29.6196 27.3162 28.7572C28.1808 27.8948 28.6667 26.7239 28.6667 25.5027V13.8022C28.6666 12.8158 28.2294 11.8801 27.4728 11.2473L18.5787 4.14341C17.0315 2.89787 14.8148 2.93808 13.3139 4.23893L4.62269 11.2473C3.83032 11.8615 3.35674 12.7999 3.33334 13.8022V25.4907C3.33334 28.036 5.39651 30.0993 7.94157 30.0993H10.4964C11.4016 30.0993 12.1373 29.3689 12.1439 28.4636L12.1797 28.4517Z" fill="white"/>
</svg>
