<svg width="25" height="24" viewBox="0 0 25 24" fill="none" xmlns="http://www.w3.org/2000/svg">
<path d="M13.6705 2.25984L20.1805 5.76984C20.9405 6.17984 20.9405 7.34984 20.1805 7.75984L13.6705 11.2698C13.0905 11.5798 12.4105 11.5798 11.8305 11.2698L5.32049 7.75984C4.56049 7.34984 4.56049 6.17984 5.32049 5.76984L11.8305 2.25984C12.4105 1.94984 13.0905 1.94984 13.6705 2.25984Z" stroke="#F5F5F5" stroke-width="1.5" stroke-linecap="round" stroke-linejoin="round"/>
<path d="M4.35951 10.1297L10.4095 13.1597C11.1595 13.5397 11.6395 14.3097 11.6395 15.1497V20.8697C11.6395 21.6997 10.7695 22.2297 10.0295 21.8597L3.97951 18.8297C3.22951 18.4497 2.74951 17.6797 2.74951 16.8397V11.1197C2.74951 10.2897 3.61951 9.75968 4.35951 10.1297Z" stroke="#F5F5F5" stroke-width="1.5" stroke-linecap="round" stroke-linejoin="round"/>
<path d="M21.1404 10.1297L15.0904 13.1597C14.3404 13.5397 13.8604 14.3097 13.8604 15.1497V20.8697C13.8604 21.6997 14.7304 22.2297 15.4704 21.8597L21.5204 18.8297C22.2704 18.4497 22.7504 17.6797 22.7504 16.8397V11.1197C22.7504 10.2897 21.8804 9.75968 21.1404 10.1297Z" stroke="#F5F5F5" stroke-width="1.5" stroke-linecap="round" stroke-linejoin="round"/>
</svg>
